<svg xmlns="http://www.w3.org/2000/svg" viewBox="0 0 40 40" width="40" height="40">
  <!-- Glowing Hexagon Base -->
  <polygon points="20,4 34,12 34,28 20,36 6,28 6,12" fill="#bd93f9"/>
  <polygon points="20,6 32,13 32,27 20,34 8,27 8,13" fill="#282a36"/>
  
  <!-- Code brackets in background -->
  <path fill="none" stroke="#8be9fd" stroke-width="2" stroke-linecap="round" stroke-linejoin="round" opacity="0.8" d="M14,15 l-3,3 l3,3 M26,15 l3,3 l-3,3"/>
  
  <!-- Architectural Compass (The Architect) -->
  <path fill="none" stroke="#ffb86c" stroke-width="3" stroke-linecap="round" stroke-linejoin="round" d="M20,10 l-7,20 M20,10 l7,20"/>
  <circle cx="20" cy="10" r="2.5" fill="#ff79c6"/>
  
  <!-- Ruler measuring between legs -->
  <path fill="none" stroke="#50fa7b" stroke-width="2.5" stroke-linecap="round" stroke-linejoin="round" d="M14,24 h12"/>
  <!-- Ruler ticks -->
  <path fill="none" stroke="#50fa7b" stroke-width="1.5" d="M16,24 v-2 M20,24 v-3 M24,24 v-2"/>
</svg>
