<svg xmlns="http://www.w3.org/2000/svg" viewBox="0 0 64 64" width="24" height="24">
  <defs>
    <linearGradient id="phoneGrad" x1="0" y1="0" x2="1" y2="1">
      <stop offset="0%" stop-color="#4B5563"/>
      <stop offset="100%" stop-color="#1F2937"/>
    </linearGradient>
    <linearGradient id="screenGrad" x1="0" y1="0" x2="0" y2="1">
      <stop offset="0%" stop-color="#0284C7"/>
      <stop offset="100%" stop-color="#0F172A"/>
    </linearGradient>
    <linearGradient id="app1" x1="0" y1="0" x2="1" y2="1"><stop offset="0%" stop-color="#F87171"/><stop offset="100%" stop-color="#DC2626"/></linearGradient>
    <linearGradient id="app2" x1="0" y1="0" x2="1" y2="1"><stop offset="0%" stop-color="#34D399"/><stop offset="100%" stop-color="#059669"/></linearGradient>
    <linearGradient id="app3" x1="0" y1="0" x2="1" y2="1"><stop offset="0%" stop-color="#FBBF24"/><stop offset="100%" stop-color="#D97706"/></linearGradient>
    <linearGradient id="app4" x1="0" y1="0" x2="1" y2="1"><stop offset="0%" stop-color="#A78BFA"/><stop offset="100%" stop-color="#7C3AED"/></linearGradient>
  </defs>
  
  <!-- Outer Casing -->
  <rect x="14" y="2" width="36" height="60" rx="6" fill="url(#phoneGrad)"/>
  
  <!-- Screen -->
  <rect x="16" y="6" width="32" height="52" rx="2" fill="url(#screenGrad)"/>
  
  <!-- Top notch -->
  <path d="M26 6 Q 32 10 38 6" fill="url(#phoneGrad)"/>
  <rect x="28" y="7" width="8" height="2" rx="1" fill="#111827"/>
  
  <!-- Dynamic Island / Widgets -->
  <rect x="20" y="16" width="10" height="10" rx="3" fill="url(#app1)"/>
  <rect x="34" y="16" width="10" height="10" rx="3" fill="url(#app2)"/>
  
  <rect x="20" y="30" width="24" height="6" rx="2" fill="url(#app3)"/>
  
  <rect x="20" y="40" width="10" height="6" rx="2" fill="url(#app4)"/>
  <rect x="34" y="40" width="10" height="6" rx="2" fill="#38BDF8"/>
</svg>
