<svg xmlns="http://www.w3.org/2000/svg" viewBox="0 0 24 24" width="40" height="40">
  <path fill="#ffffff" d="M12,2C6.48,2 2,6.48 2,12s4.48,10 10,10c1.38,0 2.5,-1.12 2.5,-2.5c0,-0.61 -0.23,-1.17 -0.61,-1.61c-0.34,-0.39 -0.56,-0.9 -0.56,-1.46c0,-1.24 1.01,-2.25 2.25,-2.25h1.92c3.59,0 6.5,-2.91 6.5,-6.5C22,6.7 17.52,2 12,2zM6.5,11.5c-0.83,0 -1.5,-0.67 -1.5,-1.5s0.67,-1.5 1.5,-1.5s1.5,0.67 1.5,1.5S7.33,11.5 6.5,11.5zM9.5,7.5c-0.83,0 -1.5,-0.67 -1.5,-1.5s0.67,-1.5 1.5,-1.5S11,5.17 11,6S10.33,7.5 9.5,7.5zM14.5,7.5c-0.83,0 -1.5,-0.67 -1.5,-1.5s0.67,-1.5 1.5,-1.5s1.5,0.67 1.5,1.5S15.33,7.5 14.5,7.5zM17.5,11.5c-0.83,0 -1.5,-0.67 -1.5,-1.5s0.67,-1.5 1.5,-1.5s1.5,0.67 1.5,1.5S18.33,11.5 17.5,11.5z"/>
</svg>
